{"title":"Alpha and Omega 2010 CAMRip.avi","uid":5838539,"size":733069312,"categoryP":"video","categoryS":"movies","magnet":"?xt=urn:btih:9906f257f24f33d0fdd1a27b90b669d7a97ee17c&amp;dn=Alpha+and+Omega+2010+CAMRip.avi&amp;tr=udp%3A%2F%2Ftracker.openbittorrent.com%3A80&amp;tr=udp%3A%2F%2Fopen.demonii.com%3A1337&amp;tr=udp%3A%2F%2Ftracker.coppersurfer.tk%3A6969&amp;tr=udp%3A%2F%2Fexodus.desync.com%3A6969","seeders":0,"leechers":0,"uploader":"razvanripper","files":-1,"time":1284828780,"description":"Link                                 : http://www.imdb.com/title/tt1213012/\nFormat                           : AVI\nFormat/Info                      : Audio Video Interleave\nFile size                        : 699 MiB\nDuration                         : 1h 14mn\nOverall bit rate                 : 1 309 Kbps\nWriting application              : VirtualDubMod 1.5.10.2 (build 2540/release)\nWriting library                  : VirtualDubMod build 2540/release\n\nVideo\nFormat                           : MPEG-4 Visual\nFormat profile                   : Streaming Video@L1\nFormat settings, BVOP            : Yes\nFormat settings, QPel            : No\nFormat settings, GMC             : No warppoints\nFormat settings, Matrix          : Default (H.263)\nCodec ID                         : XVID\nCodec ID/Hint                    : XviD\nDuration                         : 1h 14mn\nBit rate                         : 1 172 Kbps\nWidth                            : 640 pixels\nHeight                           : 352 pixels\nDisplay aspect ratio             : 16/9\nFrame rate                       : 25.000 fps\nResolution                       : 24 bits\nColorimetry                      : 4:2:0\nScan type                        : Progressive\nBits/(Pixel*Frame)               : 0.208\nStream size                      : 626 MiB (89%)\nWriting library                  : XviD 1.2.1 (UTC 2008-12-04)\n\nAudio                            : Russian \nFormat                           : MPEG Audio\nFormat version                   : Version 1\nFormat profile                   : Layer 3\nCodec ID                         : 55\nCodec ID/Hint                    : MP3\nDuration                         : 1h 14mn\nBit rate mode                    : Constant\nBit rate                         : 128 Kbps\nChannel(s)                       : 2 channels\nSampling rate                    : 48.0 KHz\nResolution                       : 16 bits\nStream size                      : 68.3 MiB (10%)\nAlignment                        : Aligned on interleaves\nInterleave, duration             : 40 ms (1.00 video frame)\nInterleave, preload duration     : 504 ms\nWriting library                  : LAME3.98r\nEncoding settings                : -m s -V 4 -q 2 -lowpass 17 -b 128\n\n","torrent":{"xt":"urn:btih:9906f257f24f33d0fdd1a27b90b669d7a97ee17c","amp;dn":"Alpha+and+Omega+2010+CAMRip.avi","amp;tr":["udp%3A%2F%2Ftracker.openbittorrent.com%3A80","udp%3A%2F%2Fopen.demonii.com%3A1337","udp%3A%2F%2Ftracker.coppersurfer.tk%3A6969","udp%3A%2F%2Fexodus.desync.com%3A6969"],"infoHash":"9906f257f24f33d0fdd1a27b90b669d7a97ee17c","infoHashBuffer":{"type":"Buffer","data":[153,6,242,87,242,79,51,208,253,209,162,123,144,182,105,215,169,126,225,124]},"announce":[],"urlList":[]}}